<svg width="50" height="46" viewBox="0 0 50 46" fill="none" xmlns="http://www.w3.org/2000/svg">
<path d="M39.729 8.91455L30.0391 9.10835L25.0004 24.806L24.8066 35.0772L39.729 8.91455Z" fill="#574CFF"/>
<path d="M33.3333 40.1161L24.9999 35.2711L24.8061 40.1161V44.961L33.3333 40.1161Z" fill="#6564FE"/>
<mask id="mask0_128_36" style="mask-type:alpha" maskUnits="userSpaceOnUse" x="24" y="-1" width="27" height="47">
<path d="M45.155 0H35.0776L30.0388 8.9147L40.1163 8.7209L26.938 31.3952L25.0001 35.0774L33.721 40.1161L45.155 17.6356L50 8.7209L45.155 0Z" fill="#D9D9D9"/>
<path d="M45.155 0L40.1163 8.7209M45.155 0H35.0776L30.0388 8.9147M45.155 0L50 8.7209L45.155 17.6356M40.1163 8.7209L30.0388 8.9147M40.1163 8.7209L45.155 17.6356M40.1163 8.7209L26.938 31.3952L25.0001 35.0774L33.721 40.1161M30.0388 8.9147L25.0001 24.6123M45.155 17.6356L33.721 40.1161M33.721 40.1161L24.8063 45.1549" stroke="black"/>
</mask>
<g mask="url(#mask0_128_36)">
<path d="M49.8054 8.72087L45.1543 0.387573L40.3093 8.72087L45.1543 17.248L49.8054 8.72087Z" fill="#574CFF"/>
</g>
<mask id="mask1_128_36" style="mask-type:alpha" maskUnits="userSpaceOnUse" x="24" y="-1" width="27" height="47">
<path d="M45.155 0H35.0776L30.0388 8.9147L40.1163 8.7209L26.938 31.3952L25.0001 35.0774L33.721 40.1161L45.155 17.6356L50 8.7209L45.155 0Z" fill="#D9D9D9"/>
<path d="M45.155 0L40.1163 8.7209M45.155 0H35.0776L30.0388 8.9147M45.155 0L50 8.7209L45.155 17.6356M40.1163 8.7209L30.0388 8.9147M40.1163 8.7209L45.155 17.6356M40.1163 8.7209L26.938 31.3952L25.0001 35.0774L33.721 40.1161M30.0388 8.9147L25.0001 24.6123M45.155 17.6356L33.721 40.1161M33.721 40.1161L24.8063 45.1549" stroke="black"/>
</mask>
<g mask="url(#mask1_128_36)">
<path d="M44.9616 17.6356L40.1167 9.10855L25.1942 35.0774L33.5275 39.9224L44.9616 17.6356Z" fill="#6564FE"/>
</g>
<mask id="mask2_128_36" style="mask-type:alpha" maskUnits="userSpaceOnUse" x="24" y="-1" width="27" height="47">
<path d="M45.1551 0H35.0776L30.0388 8.9147L40.1163 8.7209L26.938 31.3952L25.0001 35.0774L33.721 40.1161L45.1551 17.6356L50 8.7209L45.1551 0Z" fill="#6564FE"/>
<path d="M45.1551 0L40.1163 8.7209M45.1551 0H35.0776L30.0388 8.9147M45.1551 0L50 8.7209L45.1551 17.6356M40.1163 8.7209L30.0388 8.9147M40.1163 8.7209L45.1551 17.6356M40.1163 8.7209L26.938 31.3952L25.0001 35.0774L33.721 40.1161M30.0388 8.9147L25.0001 24.6123M45.1551 17.6356L33.721 40.1161M33.721 40.1161L24.8063 45.1549" stroke="black"/>
</mask>
<g mask="url(#mask2_128_36)">
<path d="M44.769 0.19397H35.0792L30.2342 8.72108L39.9241 8.62829L44.769 0.19397Z" fill="#6564FE"/>
</g>
<path d="M10.271 8.91455L19.9609 9.10835L24.9996 24.806L25.1934 35.0772L10.271 8.91455Z" fill="#574CFF"/>
<path d="M16.6667 40.1161L25.0001 35.2711L25.1939 40.1161V44.961L16.6667 40.1161Z" fill="#6564FE"/>
<mask id="mask3_128_36" style="mask-type:alpha" maskUnits="userSpaceOnUse" x="-1" y="-1" width="27" height="47">
<path d="M4.84495 0H14.9224L19.9612 8.9147L9.8837 8.7209L23.062 31.3952L24.9999 35.0774L16.279 40.1161L4.84495 17.6356L0 8.7209L4.84495 0Z" fill="#D9D9D9"/>
<path d="M4.84495 0L9.8837 8.7209M4.84495 0H14.9224L19.9612 8.9147M4.84495 0L0 8.7209L4.84495 17.6356M9.8837 8.7209L19.9612 8.9147M9.8837 8.7209L4.84495 17.6356M9.8837 8.7209L23.062 31.3952L24.9999 35.0774L16.279 40.1161M19.9612 8.9147L24.9999 24.6123M4.84495 17.6356L16.279 40.1161M16.279 40.1161L25.1937 45.1549" stroke="black"/>
</mask>
<g mask="url(#mask3_128_36)">
<path d="M5.03839 17.6356L9.88334 9.10855L24.8058 35.0774L16.4725 39.9224L5.03839 17.6356Z" fill="#6564FE"/>
</g>
<mask id="mask4_128_36" style="mask-type:alpha" maskUnits="userSpaceOnUse" x="-1" y="-1" width="27" height="47">
<path d="M4.84495 0H14.9224L19.9612 8.9147L9.8837 8.7209L23.062 31.3952L24.9999 35.0774L16.279 40.1161L4.84495 17.6356L0 8.7209L4.84495 0Z" fill="#6564FE"/>
<path d="M4.84495 0L9.8837 8.7209M4.84495 0H14.9224L19.9612 8.9147M4.84495 0L0 8.7209L4.84495 17.6356M9.8837 8.7209L19.9612 8.9147M9.8837 8.7209L4.84495 17.6356M9.8837 8.7209L23.062 31.3952L24.9999 35.0774L16.279 40.1161M19.9612 8.9147L24.9999 24.6123M4.84495 17.6356L16.279 40.1161M16.279 40.1161L25.1937 45.1549" stroke="black"/>
</mask>
<g mask="url(#mask4_128_36)">
<path d="M5.23096 0.19397H14.9208L19.7658 8.72108L10.0759 8.62829L5.23096 0.19397Z" fill="#6564FE"/>
</g>
<mask id="mask5_128_36" style="mask-type:alpha" maskUnits="userSpaceOnUse" x="-1" y="-1" width="27" height="47">
<path d="M4.84495 0H14.9224L19.9612 8.9147L9.8837 8.7209L23.062 31.3952L24.9999 35.0774L16.279 40.1161L4.84495 17.6356L0 8.7209L4.84495 0Z" fill="#D9D9D9"/>
<path d="M4.84495 0L9.8837 8.7209M4.84495 0H14.9224L19.9612 8.9147M4.84495 0L0 8.7209L4.84495 17.6356M9.8837 8.7209L19.9612 8.9147M9.8837 8.7209L4.84495 17.6356M9.8837 8.7209L23.062 31.3952L24.9999 35.0774L16.279 40.1161M19.9612 8.9147L24.9999 24.6123M4.84495 17.6356L16.279 40.1161M16.279 40.1161L25.1937 45.1549" stroke="black"/>
</mask>
<g mask="url(#mask5_128_36)">
<path d="M0.19458 8.72087L4.84573 0.387573L9.69067 8.72087L4.84573 17.248L0.19458 8.72087Z" fill="#574CFF"/>
</g>
</svg>
